:SAMPLES-PER-SECOND 30
:FULLY-SPECIFIED
:DEGREES
244
root  34.97926907 36.48524547 -14.80806906 10.80537987 9.09411335 4.116305351
lowerback  -8.098978996 3.580060244 3.997519493
upperback  -4.121719837 4.182419777 -4.457119942
thorax  0.877828002 1.861240029 -6.518559933
lowerneck  -17.1432991 4.854040146 7.332369804
upperneck  16.37039948 3.910830498 2.937459946
head  8.014639854 2.5302701 0.2462828457
lclavicle  0 -4.497500157e-015 -2.743230041e-014
lhumerus  -42.92409897 24.29630089 69.64320374
lradius  -0.1760921031 -6.507048965e-006 25.83099937
lwrist  4.824992743e-007 -3.790274832e-007 -31.74160004
lhand  -4.408620093e-031 -36.77819824 -10.44270039
lfingers  90 7.125020027 -90
lthumb  94.71023339 -25.28705114 100.9178446
rclavicle  0 -4.497500157e-015 -2.743230041e-014
rhumerus  66.22239685 11.86289978 -60.50529861
rradius  -5.16745672e-007 2.214343908e-008 38.76169968
rwrist  -3.062178075e-005 0.01194404531 -154.1470032
rhand  -1.769276438e-031 3.713059902 -6.609200001
rfingers  -90 -7.125020027 -90
rthumb  -84.76703309 -9.290375165 -60.4328168
rfemur  -13.67590904 11.81103992 14.38127995
rtibia  -2.403719902 2.077505827 23.42602921
rfoot  -2.27955842 -15.59974384 -43.6396904
rtoes  3.814760155 19.64746023 -101.2168874
lfemur  -11.67838955 -21.91631126 -18.62067986
ltibia  3.027301788 1.863373756 15.34712696
lfoot  0.8777506351 -29.11022186 31.21102524
ltoes  -8.636013038 -18.10864396 -116.0419498
245
root  34.98119745 36.49277274 -14.81241391 10.78632545 9.059617996 4.101074696
lowerback  -8.128510475 3.57392025 3.974140406
upperback  -4.126319885 4.173639774 -4.454575062
thorax  0.8861330152 1.856600046 -6.499080181
lowerneck  -17.09410095 4.839360237 7.317659855
upperneck  16.35569954 3.895259619 2.955679893
head  8.000149727 2.522619963 0.2457116097
lclavicle  0 -4.497500157e-015 -2.743230041e-014
lhumerus  -42.93510056 24.32040024 69.63860321
lradius  -0.1776194125 -6.507048965e-006 25.85770035
lwrist  4.824992743e-007 -3.790274832e-007 -31.79390144
lhand  -4.411482276e-031 -36.82789993 -10.42749977
lfingers  90 7.125020027 -90
lthumb  94.73009732 -25.27043971 100.9695475
rclavicle  0 -4.497500157e-015 -2.743230041e-014
rhumerus  66.06109619 11.88220024 -60.55239868
rradius  -5.16745672e-007 2.214343908e-008 38.91009903
rwrist  -3.062178075e-005 0.01194404531 -154.404007
rhand  -1.7689683e-031 3.555949926 -6.662799835
rfingers  -90 -7.125020027 -90
rthumb  -84.83104712 -9.23476954 -60.59055663
rfemur  -13.6458025 11.8632822 14.38764954
rtibia  -2.390932322 2.093408823 23.39025688
rfoot  -2.261819601 -15.5716629 -43.65581512
rtoes  3.781161443 19.65370653 -101.1169754
lfemur  -11.70815086 -21.901577 -18.59770775
ltibia  2.989077091 1.858407974 15.41634464
lfoot  0.8804681897 -29.14078522 31.22722816
ltoes  -8.623854512 -18.11428585 -116.002838
246
root  34.98283146 36.48763341 -14.81254457 10.78062248 9.028772354 4.078691483
lowerback  -8.105983734 3.568204165 3.949086189
upperback  -4.141540051 4.168580055 -4.452469826
thorax  0.8555290103 1.851238728 -6.487480164
lowerneck  -17.05970001 4.828370094 7.320869923
upperneck  16.36590004 3.879249573 2.963550091
head  7.997300148 2.515450001 0.2432739437
lclavicle  0 -4.497500157e-015 -2.743230041e-014
lhumerus  -42.93569946 24.27120018 69.67070007
lradius  -0.1791482568 -6.507048965e-006 25.87040138
lwrist  4.824992743e-007 -3.790274832e-007 -31.82760048
lhand  -4.41163801e-031 -36.83060074 -10.43150043
lfingers  90 7.125020027 -90
lthumb  94.73217371 -25.27425092 100.9727588
rclavicle  0 -4.497500157e-015 -2.743230041e-014
rhumerus  65.83450317 11.90989971 -60.76169968
rradius  -5.16745672e-007 2.214343908e-008 39.04990005
rwrist  -3.062178075e-005 0.01194404531 -154.4170074
rhand  -1.769033692e-031 3.589869976 -6.454050064
rfingers  -90 -7.125020027 -90
rthumb  -84.71902335 -9.418458689 -60.54056275
rfemur  -13.65123558 11.85663033 14.391922
rtibia  -2.378274679 2.087325573 23.37842941
rfoot  -2.256010771 -15.60602474 -43.63041306
rtoes  3.774924895 19.65485963 -101.0984333
lfemur  -11.70178413 -21.90319061 -18.57277489
ltibia  2.98017478 1.858329773 15.41980171
lfoot  0.9001286626 -29.13500595 31.31085014
ltoes  -8.648619581 -18.10278367 -116.0825151
247
root  34.98421016 36.48425125 -14.81304319 10.77404594 8.999462128 4.069361687
lowerback  -8.105079651 3.566230059 3.95407033
upperback  -4.150990009 4.162409782 -4.452750206
thorax  0.8446969986 1.84829998 -6.491809845
lowerneck  -17.03960037 4.826290131 7.340139866
upperneck  16.39979935 3.873679876 2.948539972
head  7.997569084 2.512970209 0.2433907837
lclavicle  0 -4.497500157e-015 -2.743230041e-014
lhumerus  -42.94630051 24.28109932 69.67939758
lradius  -0.1806785911 -6.507048965e-006 25.90139961
lwrist  4.824992743e-007 -3.790274832e-007 -31.88249969
lhand  -4.41239938e-031 -36.84379959 -10.32059956
lfingers  90 7.125020027 -90
lthumb  94.71496133 -25.16491572 100.9769476
rclavicle  0 -4.497500157e-015 -2.743230041e-014
rhumerus  65.63939667 12.00870132 -60.45349884
rradius  -5.16745672e-007 2.214343908e-008 39.33940125
rwrist  -3.062178075e-005 0.01194404531 -154.6820068
rhand  -0 3.52218008 -6.354489803
rfingers  -90 -7.125020027 -90
rthumb  -84.68567188 -9.501512572 -60.59862786
rfemur  -13.66117477 11.85266972 14.3905611
rtibia  -2.370416403 2.103195667 23.391222
rfoot  -2.251316786 -15.59727764 -43.58933258
rtoes  3.784653718 19.65305997 -101.1273589
lfemur  -11.6723671 -21.86668015 -18.57473946
ltibia  2.988402128 1.871743679 15.38548565
lfoot  0.9040884376 -29.14565468 31.34105301
ltoes  -8.662319993 -18.09640273 -116.1266147
248
root  34.98508123 36.48435638 -14.81354781 10.76905155 8.976847649 4.055090904
lowerback  -8.099391937 3.577800035 4.002090454
upperback  -4.150050163 4.174170017 -4.486609936
thorax  0.8523669839 1.853350043 -6.554059982
lowerneck  -17.01749992 4.825537205 7.340869904
upperneck  16.39010048 3.850340128 2.985409975
head  7.998911858 2.512167692 0.2500902712
lclavicle  0 -4.497500157e-015 -2.743230041e-014
lhumerus  -42.89310074 24.24679947 69.68779755
lradius  -0.1822134703 -6.507048965e-006 25.92609978
lwrist  4.824992743e-007 -3.790274832e-007 -31.87190056
lhand  -4.415294033e-031 -36.89390182 -10.32139969
lfingers  90 7.125020027 -90
lthumb  94.73826947 -25.16407413 101.0304618
rclavicle  0 -4.497500157e-015 -2.743230041e-014
rhumerus  65.45559692 12.04349899 -59.85210037
rradius  -5.16745672e-007 2.214343908e-008 39.70470047
rwrist  -3.062178075e-005 0.01194404531 -155.4340057
rhand  -1.768815779e-031 3.475539923 -6.282149792
rfingers  -90 -7.125020027 -90
rthumb  -84.66092541 -9.562019113 -60.63822645
rfemur  -13.66040134 11.87950706 14.3971014
rtibia  -2.361373901 2.127892017 23.38293457
rfoot  -2.225822449 -15.5575552 -43.54828644
rtoes  3.790391064 19.6519964 -101.1444184
lfemur  -11.67318249 -21.82482529 -18.56184387
ltibia  2.978605032 1.891918778 15.40079594
lfoot  0.9167351723 -29.20130539 31.35547447
ltoes  -8.672849986 -18.0914898 -116.1605194
249
root  34.98537559 36.48553082 -14.81405544 10.75370121 8.961562157 4.031095028
lowerback  -8.097040176 3.543960333 3.907860279
upperback  -4.167789936 4.133419991 -4.448850155
thorax  0.815335989 1.832020044 -6.465250015
lowerneck  -16.98069954 4.825264931 7.315269947
upperneck  16.41139984 3.871130228 2.981430054
head  7.99841547 2.512726068 0.2551309764
lclavicle  0 -4.497500157e-015 -2.743230041e-014
lhumerus  -42.95069885 24.29710007 69.7161026
lradius  -0.1837525964 -6.507048965e-006 25.9864006
lwrist  4.824992743e-007 -3.790274832e-007 -31.82679939
lhand  -4.413606046e-031 -36.86470032 -10.41149998
lfingers  90 7.125020027 -90
lthumb  94.74379234 -25.25346837 101.0074144
rclavicle  0 -4.497500157e-015 -2.743230041e-014
rhumerus  65.28160095 12.17990017 -59.19910431
rradius  -5.16745672e-007 2.214343908e-008 40.14429855
rwrist  -3.062178075e-005 0.01194404531 -156.3359985
rhand  -1.768208412e-031 3.134809971 -6.398590088
rfingers  -90 -7.125020027 -90
rthumb  -84.80008274 -9.442018363 -60.98087701
rfemur  -13.64743805 11.8958559 14.41042614
rtibia  -2.342833757 2.144015074 23.3691864
rfoot  -2.224180937 -15.5656786 -43.55464554
rtoes  3.822881902 19.64594168 -101.2410435
lfemur  -11.64351082 -21.80010414 -18.54440117
ltibia  2.976707458 1.893380404 15.38840866
lfoot  0.9103675485 -29.1960144 31.362257
ltoes  -8.664484546 -18.09539344 -116.1335835
250
root  34.98459163 36.48581918 -14.81460361 10.72866917 8.950134277 4.010311604
lowerback  -8.109470367 3.52215004 3.875050783
upperback  -4.185210228 4.103549957 -4.439640045
thorax  0.7970439792 1.815479994 -6.439799786
lowerneck  -16.93569946 4.825848103 7.294199944
upperneck  16.42219925 3.876449823 3.010659933
head  7.99326992 2.515690088 0.2678368688
lclavicle  0 -4.497500157e-015 -2.743230041e-014
lhumerus  -42.97060013 24.31229973 69.72740173
lradius  -0.185293138 -6.507048965e-006 26.01059914
lwrist  4.824992743e-007 -3.790274832e-007 -31.76250076
lhand  -4.417714381e-031 -36.93569946 -10.36779976
lfingers  90 7.125020027 -90
lthumb  94.76738127 -25.20814016 101.0791761
rclavicle  0 -4.497500157e-015 -2.743230041e-014
rhumerus  65.04840088 12.29039955 -58.89610291
rradius  -5.16745672e-007 2.214343908e-008 40.54710007
rwrist  -3.062178075e-005 0.01194404531 -156.8589935
rhand  -1.76810569e-031 3.073430061 -6.385650158
rfingers  -90 -7.125020027 -90
rthumb  -84.80828483 -9.450046879 -61.03988794
rfemur  -13.61282349 11.88557148 14.4272604
rtibia  -2.323521852 2.160214424 23.34185219
rfoot  -2.210948944 -15.56603241 -43.53961182
rtoes  3.815900261 19.64724727 -101.2202782
lfemur  -11.63379478 -21.78681755 -18.52186584
ltibia  2.958427906 1.886519432 15.40905476
lfoot  0.9004251361 -29.1918335 31.36219406
ltoes  -8.688315447 -18.08426057 -116.2103316
251
root  34.98397587 36.48506825 -14.81513226 10.71307182 8.943514824 3.988449097
lowerback  -8.122059822 3.502300024 3.841039658
upperback  -4.195260048 4.077330112 -4.427869797
thorax  0.7868030071 1.801599979 -6.410329819
lowerneck  -16.88349915 4.827660084 7.270959854
upperneck  16.41819954 3.889350176 3.01880002
head  7.982299805 2.522423744 0.2744219303
lclavicle  0 -4.497500157e-015 -2.743230041e-014
lhumerus  -42.98749924 24.33069992 69.76470184
lradius  -0.1868350804 -6.507048965e-006 26.07439804
lwrist  4.824992743e-007 -3.790274832e-007 -31.64579964
lhand  -4.413016982e-031 -36.85449982 -10.36330032
lfingers  90 7.125020027 -90
lthumb  94.7288993 -25.20647527 100.9921953
rclavicle  0 -4.497500157e-015 -2.743230041e-014
rhumerus  64.78099823 12.39410114 -58.5605011
rradius  -5.16745672e-007 2.214343908e-008 40.97330093
rwrist  -3.062178075e-005 0.01194404531 -157.2769928
rhand  -1.768291195e-031 3.183409929 -6.295129776
rfingers  -90 -7.125020027 -90
rthumb  -84.73757031 -9.535089944 -60.92499714
rfemur  -13.59315395 11.92750835 14.44860077
rtibia  -2.311943531 2.172782183 23.31941795
rfoot  -2.192501068 -15.56146145 -43.54005814
rtoes  3.829791652 19.6446471 -101.2615962
lfemur  -11.66663265 -21.78780174 -18.48379326
ltibia  2.920104504 1.888918996 15.47654819
lfoot  0.8958981037 -29.2324276 31.37848663
ltoes  -8.659185977 -18.09786351 -116.1165255
